<?xml version="1.0" standalone="no"?>
<!DOCTYPE svg PUBLIC "-//W3C//DTD SVG 20010904//EN"
 "http://www.w3.org/TR/2001/REC-SVG-20010904/DTD/svg10.dtd">
<svg version="1.0" xmlns="http://www.w3.org/2000/svg"
 width="1080.000000pt" height="1080.000000pt" viewBox="0 0 1080.000000 1080.000000"
 preserveAspectRatio="xMidYMid meet">

<g transform="translate(0.000000,1080.000000) scale(0.100000,-0.100000)"
fill="#000000" stroke="none">
<path d="M3205 7404 c-183 -28 -330 -134 -401 -289 -41 -89 -54 -154 -54 -263
0 -155 45 -274 142 -378 97 -103 225 -154 388 -154 149 0 274 45 365 131 70
66 108 126 138 219 105 316 -52 638 -348 716 -55 15 -183 25 -230 18z m214
-29 c276 -66 438 -359 362 -657 -49 -190 -163 -311 -344 -363 -78 -22 -237
-22 -314 0 -90 26 -169 73 -224 133 -242 265 -148 741 171 863 108 41 237 50
349 24z"/>
<path d="M3194 7207 c-158 -41 -256 -194 -241 -376 11 -137 72 -238 175 -288
50 -25 68 -28 152 -28 110 1 170 22 232 82 139 135 126 435 -24 553 -73 56
-198 81 -294 57z m195 -23 c74 -21 151 -98 180 -178 42 -115 25 -276 -39 -364
-60 -83 -147 -118 -278 -110 -123 7 -200 59 -251 168 -23 49 -26 68 -26 165 0
123 15 170 75 239 75 85 213 118 339 80z"/>
<path d="M5155 7404 c-183 -28 -330 -134 -401 -289 -41 -89 -54 -154 -54 -263
0 -155 45 -274 142 -378 97 -103 225 -154 388 -154 149 0 274 45 365 131 70
66 108 126 138 219 105 316 -52 638 -348 716 -55 15 -183 25 -230 18z m214
-29 c276 -66 438 -359 362 -657 -49 -190 -163 -311 -344 -363 -78 -22 -237
-22 -314 0 -90 26 -169 73 -224 133 -242 265 -148 741 171 863 108 41 237 50
349 24z"/>
<path d="M5144 7207 c-158 -41 -256 -194 -241 -376 11 -137 72 -238 175 -288
50 -25 68 -28 152 -28 110 1 170 22 232 82 139 135 126 435 -24 553 -73 56
-198 81 -294 57z m195 -23 c74 -21 151 -98 180 -178 42 -115 25 -276 -39 -364
-60 -83 -147 -118 -278 -110 -123 7 -200 59 -251 168 -23 49 -26 68 -26 165 0
123 15 170 75 239 75 85 213 118 339 80z"/>
<path d="M6292 7400 c-221 -40 -370 -177 -428 -392 -18 -69 -18 -228 1 -298
23 -87 75 -181 130 -237 144 -143 401 -190 610 -112 72 27 179 99 183 123 4
21 -113 146 -136 146 -7 0 -29 -12 -47 -26 -78 -59 -217 -83 -321 -55 -96 26
-179 113 -205 214 -19 76 -7 194 25 260 50 102 136 158 258 165 97 6 159 -9
226 -55 l52 -35 66 57 c36 32 68 65 71 72 12 31 -102 113 -206 149 -77 27
-202 37 -279 24z m227 -25 c71 -17 157 -60 211 -105 l35 -29 -61 -61 -60 -61
-58 35 c-186 112 -417 49 -502 -136 -25 -55 -29 -75 -29 -158 0 -81 4 -103 26
-150 36 -77 80 -124 147 -157 50 -24 69 -27 157 -28 89 0 107 3 160 28 33 16
70 38 83 49 l22 22 64 -70 64 -69 -26 -22 c-161 -135 -431 -162 -630 -62 -108
54 -187 149 -233 279 -34 97 -32 267 3 366 30 85 86 172 140 218 125 107 316
151 487 111z"/>
<path d="M7285 7404 c-183 -28 -330 -134 -401 -289 -41 -89 -54 -154 -54 -263
0 -155 45 -274 142 -378 97 -103 225 -154 388 -154 149 0 274 45 365 131 70
66 108 126 138 219 105 316 -52 638 -348 716 -55 15 -183 25 -230 18z m214
-29 c276 -66 438 -359 362 -657 -49 -190 -163 -311 -344 -363 -78 -22 -237
-22 -314 0 -90 26 -169 73 -224 133 -242 265 -148 741 171 863 108 41 237 50
349 24z"/>
<path d="M7274 7207 c-158 -41 -256 -194 -241 -376 11 -137 72 -238 175 -288
50 -25 68 -28 152 -28 110 1 170 22 232 82 139 135 126 435 -24 553 -73 56
-198 81 -294 57z m195 -23 c74 -21 151 -98 180 -178 42 -115 25 -276 -39 -364
-60 -83 -147 -118 -278 -110 -123 7 -200 59 -251 168 -23 49 -26 68 -26 165 0
123 15 170 75 239 75 85 213 118 339 80z"/>
<path d="M9225 7404 c-183 -28 -330 -134 -401 -289 -41 -89 -54 -154 -54 -263
0 -155 45 -274 142 -378 97 -103 225 -154 388 -154 149 0 274 45 365 131 70
66 108 126 138 219 105 316 -52 638 -348 716 -55 15 -183 25 -230 18z m214
-29 c276 -66 438 -359 362 -657 -49 -190 -163 -311 -344 -363 -78 -22 -237
-22 -314 0 -90 26 -169 73 -224 133 -242 265 -148 741 171 863 108 41 237 50
349 24z"/>
<path d="M9214 7207 c-158 -41 -256 -194 -241 -376 11 -137 72 -238 175 -288
50 -25 68 -28 152 -28 110 1 170 22 232 82 139 135 126 435 -24 553 -73 56
-198 81 -294 57z m195 -23 c74 -21 151 -98 180 -178 42 -115 25 -276 -39 -364
-60 -83 -147 -118 -278 -110 -123 7 -200 59 -251 168 -23 49 -26 68 -26 165 0
123 15 170 75 239 75 85 213 118 339 80z"/>
<path d="M863 7379 c-18 -18 -19 -1009 -1 -1027 8 -8 46 -12 103 -12 57 0 95
4 103 12 8 8 12 56 12 149 l0 137 188 4 c180 3 189 4 248 31 169 78 255 278
194 456 -40 119 -104 187 -219 233 -52 20 -75 22 -336 26 -218 3 -283 1 -292
-9z m592 -24 c109 -28 195 -106 236 -213 17 -47 20 -73 17 -147 -5 -107 -26
-162 -88 -229 -82 -89 -178 -115 -422 -116 l-138 0 0 -145 0 -145 -95 0 -95 0
0 505 0 505 263 0 c203 0 276 -3 322 -15z"/>
<path d="M1060 7010 l0 -180 163 0 c136 0 168 3 203 19 139 63 124 289 -21
330 -22 6 -109 11 -192 11 l-153 0 0 -180z m382 135 c35 -26 68 -91 68 -137 0
-50 -39 -117 -80 -139 -30 -16 -58 -19 -192 -19 l-158 0 0 161 0 160 168 -3
c148 -3 170 -5 194 -23z"/>
<path d="M1832 7378 c-17 -17 -17 -1009 0 -1026 8 -8 46 -12 103 -12 57 0 95
4 103 12 8 8 12 60 12 170 l0 158 78 0 79 0 147 -170 146 -170 114 0 c89 0
116 3 126 15 10 12 10 19 -2 33 -28 34 -232 267 -256 294 l-24 26 48 21 c26
12 63 33 81 47 77 59 125 205 104 317 -28 153 -136 256 -297 286 -83 16 -546
15 -562 -1z m649 -39 c76 -36 133 -90 166 -157 25 -51 28 -68 28 -152 -1 -78
-5 -103 -24 -142 -33 -67 -95 -125 -163 -150 l-58 -21 49 -56 c27 -31 94 -108
150 -171 55 -63 101 -118 101 -122 0 -5 -51 -8 -114 -8 l-113 0 -144 169 -144
170 -92 0 -93 1 0 -170 0 -170 -95 0 -95 0 0 506 0 505 293 -3 c292 -3 292 -3
348 -29z"/>
<path d="M2030 7029 l0 -161 179 4 c163 3 182 5 207 24 72 53 92 131 55 208
-37 75 -73 86 -274 86 l-167 0 0 -161z m334 141 c61 -14 98 -58 104 -123 5
-65 -14 -109 -61 -137 -28 -18 -51 -20 -194 -20 l-163 0 0 145 0 145 138 0
c75 0 155 -5 176 -10z"/>
<path d="M3812 7378 c-13 -13 -17 -153 -6 -182 5 -14 29 -16 160 -16 l154 0 0
-408 c0 -304 3 -411 12 -420 16 -16 190 -16 206 0 9 9 12 116 12 420 l0 408
154 0 c131 0 155 2 160 16 11 29 7 169 -6 182 -17 17 -829 17 -846 0z m838
-93 l0 -85 -160 0 -160 0 0 -420 0 -420 -95 0 -95 0 0 420 0 420 -160 0 -160
0 0 85 0 85 415 0 415 0 0 -85z"/>
<path d="M8002 7378 c-17 -17 -17 -1009 0 -1026 17 -17 709 -17 726 0 13 13
17 153 6 182 -5 14 -38 16 -260 16 l-254 0 0 408 c0 304 -3 411 -12 420 -8 8
-46 12 -103 12 -57 0 -95 -4 -103 -12z m198 -423 l0 -415 260 0 260 0 0 -90 0
-90 -355 0 -355 0 0 505 0 505 95 0 95 0 0 -415z"/>
<path d="M6615 6060 c-254 -35 -425 -245 -425 -523 0 -310 204 -517 510 -517
308 0 512 209 513 525 1 335 -261 561 -598 515z m232 -189 c134 -59 213 -230
183 -397 -20 -119 -74 -201 -162 -249 -46 -25 -66 -30 -148 -33 -118 -5 -185
17 -248 80 -66 65 -95 136 -100 244 -9 185 66 314 211 366 71 25 192 20 264
-11z"/>
<path d="M3480 5965 l0 -85 245 0 c135 0 245 -4 245 -9 0 -5 -112 -168 -250
-362 l-250 -354 0 -57 0 -58 385 0 385 0 0 90 0 90 -255 0 c-140 0 -255 3
-255 8 1 4 115 169 255 367 246 348 255 362 255 408 l0 47 -380 0 -380 0 0
-85z"/>
<path d="M4360 5545 l0 -505 375 0 375 0 0 90 0 90 -282 2 -283 3 0 115 0 115
273 3 272 2 0 85 0 85 -275 0 -275 0 0 120 0 120 285 0 285 0 0 90 0 90 -375
0 -375 0 0 -505z"/>
<path d="M5260 5546 l0 -506 95 0 95 0 0 170 0 170 93 0 94 0 147 -170 146
-170 111 0 c105 0 111 1 98 18 -8 9 -76 88 -151 174 -76 86 -138 162 -138 167
0 6 8 11 18 11 34 0 122 52 157 92 69 81 89 227 46 339 -28 74 -104 147 -186
179 -57 22 -76 24 -342 28 l-283 4 0 -506z m570 308 c19 -11 45 -36 58 -55 20
-29 23 -44 20 -96 -5 -72 -26 -108 -79 -135 -28 -15 -62 -18 -206 -18 l-173 0
0 166 0 166 173 -4 c152 -3 176 -5 207 -24z"/>
<path d="M6935 4760 c-53 -11 -136 -44 -183 -73 -154 -98 -254 -321 -237 -527
25 -295 227 -472 540 -474 156 0 272 43 372 136 l53 51 0 217 c0 189 -2 219
-16 224 -31 12 -429 7 -442 -6 -7 -7 -12 -43 -12 -93 0 -50 5 -86 12 -93 8 -8
52 -12 130 -12 l119 0 -3 -77 -3 -78 -57 -29 c-49 -24 -69 -28 -140 -28 -98
-1 -150 12 -206 50 -97 64 -144 185 -125 318 13 90 42 152 99 209 109 109 305
115 444 14 l43 -31 63 63 c35 35 64 71 64 79 0 35 -154 128 -257 155 -60 16
-191 18 -258 5z m264 -25 c69 -18 153 -60 199 -101 l37 -32 -58 -60 -59 -59
-50 33 c-144 97 -347 80 -453 -38 -76 -83 -113 -213 -94 -330 18 -110 74 -189
167 -235 52 -26 67 -28 168 -28 103 0 114 2 170 30 l59 31 3 92 3 92 -131 0
-130 0 0 85 0 85 215 0 215 0 0 -214 0 -214 -51 -45 c-125 -109 -294 -149
-482 -113 -100 19 -180 59 -245 120 -91 86 -139 192 -149 331 -19 269 128 499
360 566 77 22 231 24 306 4z"/>
<path d="M8053 4740 c-18 -11 -33 -26 -33 -34 0 -8 -11 -23 -25 -34 -31 -24
-480 -768 -490 -811 -9 -44 10 -95 51 -131 l35 -30 545 0 c617 0 586 -4 626
79 30 63 18 97 -100 287 -55 88 -161 260 -237 384 -143 233 -171 272 -217 296
-40 21 -117 18 -155 -6z m152 -38 c20 -12 66 -77 134 -188 57 -93 171 -277
253 -409 81 -132 148 -250 148 -263 0 -31 -26 -79 -49 -92 -13 -6 -206 -10
-553 -10 -594 0 -567 -3 -589 69 -14 47 -25 26 261 501 162 269 233 378 255
391 38 24 102 24 140 1z"/>
<path d="M8070 4493 c-20 -26 -21 -33 -14 -232 6 -189 8 -207 26 -223 28 -25
92 -24 118 2 19 19 20 33 20 230 0 197 -1 211 -20 230 -14 14 -33 20 -64 20
-36 0 -48 -5 -66 -27z"/>
<path d="M8086 3959 c-56 -44 -20 -139 53 -141 72 -2 108 86 56 137 -30 31
-73 32 -109 4z"/>
<path d="M2183 4744 c-10 -4 -13 -118 -13 -519 0 -458 2 -514 16 -519 26 -10
503 -6 579 4 87 13 185 59 224 107 88 107 81 284 -16 381 l-45 44 31 32 c42
44 61 95 61 169 0 143 -64 230 -205 282 -43 16 -88 19 -335 21 -157 2 -291 1
-297 -2z m648 -42 c112 -45 172 -134 173 -257 0 -59 -4 -78 -27 -117 -15 -25
-43 -56 -63 -69 l-36 -22 28 -12 c47 -19 101 -88 119 -149 40 -139 -29 -271
-171 -327 -56 -22 -73 -23 -366 -27 l-308 -4 0 507 0 507 298 -4 c279 -4 300
-5 353 -26z"/>
<path d="M2370 4440 l0 -120 168 0 c186 0 231 8 263 48 46 58 1 159 -80 182
-20 5 -107 10 -193 10 l-158 0 0 -120z m364 86 c68 -28 89 -111 40 -157 -25
-23 -31 -24 -205 -27 l-179 -3 0 100 0 101 155 0 c111 0 165 -4 189 -14z"/>
<path d="M2370 4025 l0 -125 183 0 c156 0 188 3 223 19 104 47 98 152 -10 206
-47 24 -59 25 -223 25 l-173 0 0 -125z m383 91 c99 -48 104 -149 9 -188 -15
-6 -105 -13 -199 -16 l-173 -5 0 118 0 117 163 -4 c130 -3 169 -8 200 -22z"/>
<path d="M3510 4738 c-7 -7 -112 -238 -235 -513 -164 -366 -221 -503 -213
-512 11 -14 194 -18 214 -5 7 4 30 46 52 95 l41 87 254 0 254 0 38 -87 c22
-49 44 -91 50 -95 12 -9 187 -11 209 -2 9 3 16 10 16 16 0 11 -440 999 -453
1016 -6 8 -42 12 -113 12 -70 0 -107 -4 -114 -12z m438 -505 c122 -274 222
-502 222 -506 0 -4 -45 -6 -101 -5 l-100 3 -42 93 -41 92 -263 0 -264 0 -44
-95 -44 -95 -101 0 c-78 0 -101 3 -97 13 3 6 94 210 202 452 109 242 208 464
221 493 l23 52 103 0 103 0 223 -497z"/>
<path d="M3616 4502 c-8 -13 -176 -402 -176 -407 0 -3 83 -5 184 -5 l184 0
-90 208 c-49 114 -91 208 -93 210 -2 2 -5 -1 -9 -6z m90 -217 c41 -94 74 -173
74 -177 0 -5 -72 -8 -161 -8 -88 0 -159 4 -157 8 51 128 155 351 161 349 5 -1
42 -79 83 -172z"/>
<path d="M4252 4738 c-17 -17 -17 -1009 0 -1026 8 -8 46 -12 103 -12 57 0 95
4 103 12 8 8 12 60 12 170 l0 158 78 0 79 0 147 -170 146 -170 114 0 c89 0
116 3 126 15 10 12 10 19 -2 33 -28 34 -232 267 -256 294 l-24 26 48 21 c26
12 63 33 81 47 77 59 125 205 104 317 -28 153 -136 256 -297 286 -83 16 -546
15 -562 -1z m639 -36 c76 -30 138 -87 174 -158 26 -52 29 -69 29 -149 0 -73
-4 -100 -23 -143 -29 -64 -102 -133 -162 -152 -24 -7 -47 -16 -51 -20 -4 -3
60 -82 142 -175 82 -94 150 -173 150 -177 0 -5 -51 -8 -113 -8 l-113 0 -145
170 -144 169 -92 1 -93 0 0 -170 0 -170 -95 0 -95 0 0 506 0 505 288 -3 c270
-3 290 -5 343 -26z"/>
<path d="M4450 4389 l0 -160 179 3 c196 3 206 6 255 71 30 41 32 123 4 171
-40 68 -68 76 -265 76 l-173 0 0 -161z m334 141 c61 -14 98 -58 104 -123 5
-65 -14 -109 -61 -137 -28 -18 -51 -20 -194 -20 l-163 0 0 145 0 145 138 0
c75 0 155 -5 176 -10z"/>
<path d="M5222 4738 c-17 -17 -17 -1009 0 -1026 8 -8 46 -12 103 -12 57 0 95
4 103 12 8 8 12 60 12 170 l0 158 78 0 79 0 147 -170 146 -170 114 0 c89 0
116 3 126 15 10 12 10 19 -2 33 -28 34 -232 267 -256 294 l-24 26 48 21 c26
12 63 33 81 47 77 59 125 205 104 317 -28 153 -136 256 -297 286 -83 16 -546
15 -562 -1z m639 -36 c76 -30 138 -87 174 -158 26 -52 29 -69 29 -149 0 -73
-4 -100 -23 -143 -29 -64 -102 -133 -162 -152 -24 -7 -47 -16 -51 -20 -4 -3
60 -82 142 -175 82 -94 150 -173 150 -177 0 -5 -51 -8 -113 -8 l-113 0 -145
170 -144 169 -92 1 -93 0 0 -170 0 -170 -95 0 -95 0 0 506 0 505 288 -3 c270
-3 290 -5 343 -26z"/>
<path d="M5420 4389 l0 -160 179 3 c196 3 206 6 255 71 30 41 32 123 4 171
-40 68 -68 76 -265 76 l-173 0 0 -161z m334 141 c61 -14 98 -58 104 -123 5
-65 -14 -109 -61 -137 -28 -18 -51 -20 -194 -20 l-163 0 0 145 0 145 138 0
c75 0 155 -5 176 -10z"/>
<path d="M6203 4743 c-10 -4 -13 -117 -13 -518 0 -458 2 -514 16 -519 29 -11
179 -7 192 6 17 17 17 1009 0 1026 -12 12 -169 16 -195 5z m187 -518 l0 -505
-95 0 -95 0 0 505 0 505 95 0 95 0 0 -505z"/>
</g>
</svg>
